<?xml version="1.0" encoding="UTF-8"?>
<!DOCTYPE svg PUBLIC "-//W3C//DTD SVG 1.1//EN" "http://www.w3.org/Graphics/SVG/1.1/DTD/svg11.dtd">
<!-- Creator: CorelDRAW 2021 (64-Bit) -->
<svg xmlns="http://www.w3.org/2000/svg" xml:space="preserve" height="50px" version="1.1" style="shape-rendering:geometricPrecision; text-rendering:geometricPrecision; image-rendering:optimizeQuality; fill-rule:evenodd; clip-rule:evenodd"
viewBox="0 0 133.87 103.1"
 xmlns:xlink="http://www.w3.org/1999/xlink"
 xmlns:xodm="http://www.corel.com/coreldraw/odm/2003">
 <defs>
  <style type="text/css">
   <![CDATA[
    .fil0 {fill:#1f1f1f;fill-rule:nonzero}
    .fil1 {fill:white;fill-rule:nonzero}
   ]]>
  </style>
 </defs>
 <g id="Layer_x0020_1">
  <metadata id="CorelCorpID_0Corel-Layer"/>
  <g id="_2633734590368">
   <path class="fil0" d="M23.58 45.74l6.66 -0.01 6.66 -0.07c2.22,-0.02 4.44,-0.04 6.66,-0.09l0.09 0 0.06 -0.02c0.5,-0.16 0.91,-0.35 1.33,-0.59 0.42,-0.23 0.82,-0.52 1.18,-0.85 0.37,-0.33 0.67,-0.74 0.93,-1.18 0.1,-0.24 0.23,-0.46 0.28,-0.72l0.11 -0.37 0.04 -0.38c0.05,-0.26 0.02,-0.51 0.01,-0.76l0 -0.1 -0.01 -0.04 0 -0.02 0 -0.04 0 -0.02 -0.03 -0.16 -0.09 -0.36c-0.14,-0.51 -0.33,-0.93 -0.55,-1.35 -0.44,-0.82 -0.96,-1.56 -1.52,-2.27 -1.11,-1.41 -2.36,-2.69 -3.67,-3.89 -1.31,-1.21 -2.7,-2.31 -4.16,-3.34 -0.72,-0.51 -1.47,-1 -2.24,-1.45 -0.76,-0.45 -1.57,-0.87 -2.36,-1.24 -1.63,-0.74 -3.28,-1.37 -4.97,-1.88 -1.7,-0.51 -3.42,-0.93 -5.17,-1.2 -0.87,-0.12 -1.75,-0.22 -2.64,-0.2 -0.44,0.01 -0.89,0.04 -1.32,0.15l-0.62 0.25 -0.43 0.49c0.19,-0.42 0.65,-0.58 1.07,-0.65 0.42,-0.08 0.86,-0.09 1.3,-0.07 0.87,0.03 1.73,0.16 2.59,0.33 1.71,0.34 3.4,0.84 5.04,1.43 1.65,0.58 3.27,1.25 4.81,2.03 0.79,0.4 1.53,0.81 2.27,1.27 0.73,0.47 1.45,0.96 2.15,1.48 1.4,1.03 2.72,2.16 3.99,3.34 1.25,1.2 2.45,2.47 3.49,3.83 0.52,0.68 1,1.39 1.38,2.12 0.19,0.36 0.36,0.76 0.45,1.09l0.06 0.28 0.03 0.16 0 0.11 0 0.56 -0.04 0.27 -0.07 0.26 -0.21 0.51c-0.19,0.31 -0.4,0.62 -0.7,0.88 -0.28,0.25 -0.6,0.49 -0.95,0.68 -0.33,0.18 -0.7,0.34 -1.02,0.45l-13.23 0.22 -6.65 0.1 -3.32 0.04 -0.81 0 -0.41 -0.01 -0.21 -0.01 -0.13 -0.02 -0.41 -0.22 -0.06 -0.2 0.02 -0.24 0.03 -0.09 -0.01 -0.05 -0.08 -4.97 -0.1 -4.97 -0.12 -4.97 -0.07 -2.49 -0.08 -2.48 -0.08 2.48 -0.06 2.49 -0.11 4.97 -0.09 4.97 -0.07 4.94 -0.05 0.47 0.17 0.59 0.44 0.45 0.52 0.21 0.27 0.05 0.21 0.01 0.42 0.02 0.86 0.03c1.11,0.02 2.23,0.03 3.34,0.03z"/>
   <path class="fil0" d="M24.41 30.31l-1.15 0 -0.58 -1 0.58 -0.99 1.15 -0.01 0.58 1 -0.58 1zm-1.46 -2.53l-0.88 1.53 0.88 1.53 1.77 0 0.88 -1.53 -0.88 -1.53 -1.77 0z"/>
   <path class="fil0" d="M24.42 41.03l-1.15 0 -0.58 -1 0.58 -1 1.15 0 0.58 1 -0.58 1zm-1.46 -2.53l-0.88 1.53 0.88 1.53 1.77 0 0.88 -1.53 -0.88 -1.54 -1.77 0.01z"/>
   <path class="fil0" d="M41.5 41.01l-1.15 0 -0.58 -1 0.57 -1 1.16 0 0.58 1 -0.58 1zm-1.46 -2.53l-0.88 1.53 0.88 1.53 1.77 0 0.88 -1.53 -0.89 -1.53 -1.76 0z"/>
   <path class="fil0" d="M24.02 25.41c0.5,0.15 1.07,0.35 1.69,0.57 0.62,0.21 1.28,0.47 1.98,0.75 0.35,0.14 0.7,0.29 1.07,0.44 0.36,0.16 0.72,0.32 1.1,0.49 0.74,0.34 1.51,0.7 2.26,1.11 0.39,0.19 0.76,0.4 1.14,0.62 0.38,0.21 0.76,0.43 1.12,0.66 0.37,0.23 0.75,0.45 1.11,0.7 0.36,0.24 0.72,0.48 1.07,0.72 0.69,0.51 1.38,1.01 2.01,1.53 0.32,0.24 0.63,0.51 0.93,0.76 0.31,0.25 0.59,0.5 0.87,0.75 0.28,0.25 0.55,0.5 0.8,0.75 0.25,0.24 0.49,0.49 0.71,0.73 0.45,0.48 0.83,0.93 1.16,1.35 0.33,0.42 0.59,0.81 0.78,1.14 0.2,0.32 0.32,0.59 0.41,0.78l0.1 0.3c0,0 -0.08,-0.44 -0.44,-1.12 -0.18,-0.35 -0.42,-0.74 -0.73,-1.19 -0.31,-0.43 -0.67,-0.92 -1.11,-1.41 -0.22,-0.25 -0.45,-0.5 -0.7,-0.76 -0.24,-0.26 -0.5,-0.52 -0.78,-0.77 -0.27,-0.27 -0.56,-0.54 -0.85,-0.8 -0.3,-0.26 -0.61,-0.53 -0.93,-0.78 -0.64,-0.53 -1.32,-1.04 -2.01,-1.56 -0.36,-0.24 -0.72,-0.5 -1.08,-0.75 -0.36,-0.25 -0.74,-0.47 -1.11,-0.7 -0.37,-0.24 -0.76,-0.45 -1.14,-0.67 -0.38,-0.21 -0.77,-0.42 -1.16,-0.61 -0.76,-0.4 -1.54,-0.76 -2.29,-1.1 -0.38,-0.16 -0.75,-0.32 -1.12,-0.47 -0.37,-0.14 -0.73,-0.28 -1.09,-0.41 -0.71,-0.26 -1.38,-0.5 -2.01,-0.69 -1.25,-0.4 -2.32,-0.66 -3.07,-0.84 -0.75,-0.17 -1.18,-0.24 -1.18,-0.24 0,0 0.43,0.1 1.16,0.32 0.37,0.1 0.82,0.23 1.33,0.4z"/>
   <polygon class="fil0" points="84.57,7.36 77.73,9.25 74.5,20.66 81.36,18.72 "/>
   <path class="fil0" d="M40.88 30.14l10.31 -2.91 2.67 -9.44c-2.44,0.66 -4.75,1.29 -6.84,1.85 -7.03,1.87 -11.72,3.11 -11.72,3.11 0,0 4.67,-1.33 11.66,-3.33 2.14,-0.6 4.49,-1.26 6.99,-1.96l0.51 -1.79 -26.45 7.29c0,0 3.24,0.51 7.8,3.65 4.56,3.13 5.07,3.53 5.07,3.53z"/>
   <path class="fil0" d="M112.05 44.67l-0.35 -0.01c-1.8,-0.02 -4.37,-0.07 -7.45,-0.08l-0.62 -0.01 -5.93 -9.8c2.72,-0.03 5.26,-0.08 7.53,-0.11 0.26,0 0.51,-0.01 0.76,-0.01l6.06 10.02zm3.11 -9.01l0.18 0 0 0.18c0.03,1.2 0.05,2.4 0.04,3.59 -0.01,0.61 -0.03,1.2 -0.05,1.8 -0.02,0.6 -0.05,1.2 -0.09,1.8 -0.06,-0.6 -0.1,-1.2 -0.13,-1.8 -0.03,-0.6 -0.07,-1.19 -0.09,-1.79 -0.04,-1.14 -0.05,-2.28 -0.05,-3.42 -0.62,-0.03 -1.25,-0.08 -1.87,-0.13 -0.35,-0.02 -0.69,-0.04 -1.03,-0.08 -0.34,-0.04 -0.68,-0.07 -1.03,-0.11 0.35,-0.02 0.69,-0.03 1.04,-0.04 0.34,-0.01 0.68,-0.01 1.03,-0.01 0.68,0 1.37,-0.01 2.05,0.01zm-21.43 8.88c-1.83,0.01 -3.71,0.01 -5.62,0.02l-5.87 -9.7 0.46 0c2.65,-0.02 5.29,-0.03 7.87,-0.05l5.88 9.73c-0.89,-0.01 -1.8,0 -2.72,0zm-34.66 0.4c-0.82,0.02 -1.6,0.04 -2.35,0.06l-6.35 -10.5c0.46,0.01 1.28,0.03 2.39,0.06 1.52,0.03 3.6,0.09 6.08,0.12l6.13 10.14c-2.11,0.04 -4.09,0.09 -5.9,0.12zm15.83 -10.11l5.9 9.77c-2.8,0.03 -5.59,0.07 -8.29,0.1l-6 -9.92c1.35,0.02 2.74,0.03 4.16,0.03 1.38,0.01 2.79,0.01 4.23,0.02zm40.56 -0.4c0,0 -1.02,-0.03 -2.81,-0.08 -1.79,-0.03 -4.35,-0.1 -7.42,-0.14 -3.08,-0.03 -6.66,-0.1 -10.5,-0.11 -3.84,-0.01 -7.93,-0.02 -12.03,-0.04 -4.09,0.03 -8.19,0.05 -12.03,0.07 -3.84,0.01 -7.42,0.09 -10.49,0.12 -3.07,0.05 -5.63,0.13 -7.42,0.16 -1.12,0.03 -1.94,0.05 -2.4,0.07l-0.05 -0.08 -4.75 0c0,0 2.95,2.57 3.43,6.18 0.48,3.62 -2.47,4.77 -2.47,4.77l5.32 -0.04c1.79,0.02 4.27,0.07 7.24,0.08 3.08,0.01 6.67,0.05 10.52,0.03 3.85,-0.01 7.96,-0.02 12.07,-0.04 4.1,-0.05 8.21,-0.1 12.06,-0.15 3.85,-0.04 7.44,-0.15 10.53,-0.21 3.08,-0.06 5.64,-0.16 7.44,-0.21l0.43 -0.01 0.02 0.04 4.37 -0.03 -0.1 -9.81 -0.67 -0.48 -3.52 0 0.42 -0.01c1.79,-0.05 2.81,-0.08 2.81,-0.08z"/>
   <polygon class="fil0" points="19.95,69.72 45.19,69.7 45.18,57.75 19.94,57.77 "/>
   <polygon class="fil0" points="45.98,57.75 45.99,69.7 68.46,69.68 68.45,57.73 "/>
   <path class="fil0" d="M19.93 56.98l92.82 -0.09 0.01 -0.4c0.03,-2.18 0.09,-4.01 0.12,-5.29 0.04,-1.27 0.06,-2 0.06,-2 0,0 0.04,0.73 0.09,2 0.04,1.28 0.12,3.1 0.18,5.29l0.01 0.4 1.73 0 -0.01 -9.72 -95.01 0.09 0 9.72z"/>
   <path class="fil0" d="M112.74 57.69l-43.5 0.04 0.02 11.95 43.41 -0.04c0,-0.48 -0.01,-0.97 -0.01,-1.45 0.01,-1.43 0.01,-2.85 0.02,-4.21 0.01,-2.26 0.03,-4.39 0.06,-6.29z"/>
   <path class="fil0" d="M113.37 63.97c0.02,1.37 0.04,2.78 0.06,4.22 0,0.48 0.01,0.96 0.01,1.44l1.52 0 -0.01 -11.95 -1.71 0.01c0.05,1.9 0.1,4.03 0.13,6.28z"/>
   <path class="fil0" d="M19.96 82.47l92.83 -0.09c-0.01,-0.41 -0.02,-0.83 -0.02,-1.26 -0.02,-1.37 -0.04,-2.78 -0.06,-4.21 -0.01,-1.44 -0.02,-2.9 -0.04,-4.36 0,-0.71 0,-1.41 0,-2.12l-92.72 0.09 0.01 11.95z"/>
   <path class="fil0" d="M113.47 72.54c0,1.46 0,2.92 0.01,4.36 -0.01,1.44 -0.01,2.85 -0.02,4.22 0,0.42 0,0.84 0,1.26l1.51 0 -0.01 -11.95 -1.51 0c0.01,0.7 0.01,1.41 0.02,2.11z"/>
   <path class="fil0" d="M19.03 37.24c0.02,1.07 0.07,2.06 0.1,2.91 0.03,0.86 0.08,1.57 0.1,2.07 0.03,0.5 0.04,0.78 0.04,0.78 0,0 0.02,-0.28 0.03,-0.78 0.02,-0.5 0.05,-1.21 0.05,-2.07 0.01,-0.85 0.03,-1.85 0.03,-2.91 -0.01,-1.07 -0.01,-2.21 -0.02,-3.35 -0.02,-1.14 -0.04,-2.28 -0.06,-3.34 -0.03,-1.07 -0.08,-2.07 -0.1,-2.92 -0.03,-0.86 -0.08,-1.57 -0.1,-2.07 -0.03,-0.49 -0.05,-0.78 -0.05,-0.78 0,0 -0.01,0.29 -0.03,0.78 -0.01,0.5 -0.04,1.21 -0.04,2.07 -0.01,0.85 -0.04,1.85 -0.03,2.92 0.01,1.07 0.01,2.21 0.02,3.34 0.02,1.14 0.04,2.28 0.06,3.35z"/>
   <path class="fil0" d="M113.23 99.2l-0.24 0.27 -0.21 -0.29 -0.13 -0.63 0.2 -0.6 0.24 -0.27 0.22 0.29 0.13 0.63 -0.21 0.6zm-89.9 0.99l-0.33 -0.12 -0.47 -0.44 -0.17 -0.61 0.04 -0.36 0.34 0.12 0.47 0.44 0.17 0.61 -0.05 0.36zm90.05 -11.59c-0.03,2.19 -0.09,4.01 -0.12,5.29 -0.04,1.28 -0.07,2 -0.07,2 0,0 -0.03,-0.72 -0.08,-2 -0.05,-1.28 -0.13,-3.1 -0.18,-5.29 -0.05,-1.63 -0.09,-3.47 -0.13,-5.43l-92.84 0.09 0.01 15c0,2.67 2.17,4.84 4.85,4.84l85.32 -0.08c2.68,0 4.85,-2.18 4.84,-4.85l-0.01 -15 -1.52 0c-0.01,1.96 -0.04,3.8 -0.07,5.43z"/>
   <path class="fil0" d="M99.08 5.06l0.53 -1.85 -6.98 1.93 -0.52 1.81c2.24,-0.61 4.36,-1.19 6.3,-1.71l0.67 -0.18z"/>
   <path class="fil0" d="M106.58 11.72c-0.37,0.08 -0.67,0.14 -0.88,0.18l-0.34 0.06 0.32 -0.14c0.2,-0.07 0.48,-0.19 0.83,-0.32 0.69,-0.26 1.63,-0.57 2.57,-0.85 0.94,-0.27 1.89,-0.52 2.62,-0.68 0.36,-0.08 0.66,-0.14 0.87,-0.18l0.34 -0.06 -0.32 0.14c-0.2,0.07 -0.48,0.19 -0.83,0.32 -0.69,0.26 -1.62,0.57 -2.57,0.85 -0.94,0.27 -1.89,0.52 -2.61,0.68zm7.4 -2.2l-2.74 -9.52 -3.58 0.99 -0.55 1.94c1.92,-0.51 3.02,-0.8 3.02,-0.8 0,0 -1.1,0.31 -3.03,0.87l-2.6 9.2 -8.08 2.27 2.59 -9.17 -0.55 0.16c-1.97,0.55 -4.14,1.16 -6.44,1.81l-2.59 9.18 -23 6.48 2.62 -9.28c-2.41,0.66 -4.81,1.31 -7.14,1.96l-2.64 9.35 0.55 -0.16 -18.94 5.34 70.78 -18.9 2.32 -1.72z"/>
   <path class="fil0" d="M69.67 11.47l-7.15 1.97 -0.5 1.77c2.34,-0.65 4.74,-1.32 7.16,-1.99l0.49 -1.75z"/>
   <path class="fil0" d="M12.6 96.5c-7.54,0 -12.6,-5.13 -12.6,-12.78 0,-7.52 5.48,-14.29 10.41,-15.65 0.71,-0.2 1.41,-0.3 2.08,-0.3 0.71,0 1.34,0.11 1.88,0.28l0.21 -0.67 1.12 -0.27c1.88,-0.46 2.82,-0.68 4.7,-1.1l2.45 -0.54 0.16 14.82 -1.79 0.24c-2.12,0.28 -3.18,0.43 -5.29,0.74l-2.23 0.34 -0.11 -2.25c-0.06,-1.26 -0.43,-1.86 -0.56,-1.94l-0.18 0.02c-0.65,0.13 -1.87,2.05 -1.85,5.24 0.01,1.86 0.68,3.87 2.11,3.87l0.12 0c0.3,-0.02 1.43,-0.28 3.04,-2.77l0.12 -0.17 1.54 -2.23 1.71 2.09c1.4,1.7 2.13,2.63 3.58,4.51l0.91 1.18 -0.85 1.23c-2.74,3.94 -6.54,6.11 -10.68,6.11z"/>
   <path class="fil1" d="M21.61 89.22c-2.01,2.88 -5.09,5.25 -9.01,5.25 -6.35,0 -10.56,-4.07 -10.56,-10.75 0,-6.88 5.05,-12.62 8.91,-13.69 2.95,-0.81 4.3,0.83 4.57,1.2 0.27,-0.86 0.4,-1.28 0.66,-2.14 1.86,-0.46 2.8,-0.68 4.66,-1.09 0.05,4.2 0.07,6.3 0.12,10.51 -2.14,0.29 -3.21,0.44 -5.33,0.75 -0.11,-2.28 -1.09,-4.25 -3.19,-3.81 -2.13,0.43 -3.5,3.66 -3.48,7.24 0.03,3.25 1.56,6.06 4.4,5.89 2.5,-0.16 4.44,-3.44 4.71,-3.82 1.41,1.73 2.12,2.62 3.54,4.46z"/>
   <path class="fil0" d="M20.74 86.93l1.89 -0.09 -0.14 -12.17 -1.88 0.32 -0.1 -9.01 1.63 -0.35c3.97,-0.84 6.03,-1.23 10.02,-1.88l2.34 -0.38 0.1 9.47 -1.86 0.25 0.15 13.35 1.86 -0.06 0.1 9.44 -2.05 0.04c-3.98,0.01 -11.96,0.05 -11.96,0.05l-0.1 -8.98z"/>
   <path class="fil1" d="M32.49 65.76c0.02,2.12 0.04,3.18 0.06,5.3 -0.75,0.1 -1.12,0.15 -1.86,0.25 0.07,6.9 0.11,10.34 0.19,17.24 0.74,-0.03 1.11,-0.04 1.85,-0.07 0.02,2.14 0.04,3.21 0.06,5.34 -3.98,0.02 -5.96,0.03 -9.94,0.05 -0.02,-2 -0.03,-3 -0.05,-5 0.75,-0.03 1.13,-0.05 1.88,-0.08 -0.07,-6.61 -0.11,-9.92 -0.18,-16.53 -0.75,0.13 -1.13,0.19 -1.88,0.32 -0.02,-1.98 -0.03,-2.97 -0.05,-4.95 3.95,-0.85 5.94,-1.22 9.92,-1.87z"/>
   <path class="fil0" d="M32.17 86.63l1.77 -0.06 -0.14 -13.74 -1.74 0.22 -0.09 -9.28 1.73 -0.27c3.45,-0.54 5.25,-0.78 8.72,-1.18l1.4 -0.16c0,0 1.69,3.3 2.15,4.21l-0.03 -4.43 1.87 -0.17c3.64,-0.32 5.53,-0.45 9.19,-0.62l2.12 -0.09 0.04 9.73 -1.99 0.08 0.11 24.93 -9.77 0.02c0,0 -1.57,-3.31 -2.02,-4.27l0.03 4.27 -13.25 0.04 -0.1 -9.23z"/>
   <path class="fil1" d="M55.12 68.92c0.04,9.94 0.07,14.91 0.11,24.85 -2.57,0 -3.86,0 -6.43,0.01 -3.1,-6.54 -4.66,-9.76 -7.78,-15.92 0.04,4.22 0.06,6.32 0.1,10.54 0.92,-0.02 1.38,-0.03 2.3,-0.05 0.02,2.17 0.03,3.26 0.05,5.44 -3.68,0.01 -5.51,0.02 -9.19,0.03 -0.02,-2.09 -0.03,-3.13 -0.05,-5.22 0.7,-0.03 1.06,-0.04 1.76,-0.06 -0.07,-7.21 -0.1,-10.81 -0.18,-18.02 -0.69,0.09 -1.04,0.13 -1.74,0.22 -0.02,-2.09 -0.03,-3.14 -0.05,-5.22 3.44,-0.54 5.17,-0.78 8.63,-1.17 3.01,5.84 4.51,8.89 7.5,15.11 -0.03,-4.11 -0.05,-6.16 -0.07,-10.27 -0.82,0.06 -1.23,0.09 -2.05,0.14 -0.01,-2.21 -0.02,-3.31 -0.04,-5.53 3.64,-0.32 5.46,-0.44 9.11,-0.61 0,2.26 0.01,3.38 0.01,5.64 -0.79,0.03 -1.19,0.05 -1.99,0.09z"/>
   <path class="fil0" d="M69.57 72.83l0.01 -2.01c-0.26,0 -0.51,0 -0.76,0l0 2.01c0.26,0 0.5,0 0.75,0zm-0.02 13.04l0.01 -3.11c-0.25,0 -0.49,0 -0.74,0l0 3.11c0.24,0 0.48,0 0.73,0zm-2.4 9.93l-10.48 0 -0.03 -9.89 1.89 -0.01 -0.04 -14.95 -1.9 0.06 -0.02 -9.84 1.95 -0.08c3.64,-0.14 6.24,-0.2 8.68,-0.2 2.79,0 5.62,0.08 9.76,0.27l1.95 0.09 -0.05 13.71c0,0 -3.65,-0.12 -4.31,-0.13l-0.02 6.98c0.68,0.01 4.3,0.07 4.3,0.07l-0.05 13.92 -11.63 0z"/>
   <path class="fil1" d="M76.87 63.19c-0.02,3.87 -0.02,5.8 -0.04,9.67 -2.09,-0.07 -3.13,-0.09 -5.22,-0.12 0,-1.57 0,-2.36 0.01,-3.92 -1.94,-0.04 -2.9,-0.04 -4.84,-0.04 0,2.43 0,3.65 0,6.08 2.29,0 3.44,0.01 5.73,0.05 0,2.33 -0.01,3.5 -0.01,5.84 -2.29,-0.03 -3.43,-0.03 -5.72,-0.03 0,2.87 0,4.31 0,7.18 1.92,0 2.88,0 4.8,0.01 0,-1.64 0.01,-2.45 0.01,-4.09 2.08,0.02 3.12,0.03 5.2,0.06 -0.02,3.96 -0.02,5.93 -0.04,9.89 -7.22,-0.01 -10.83,-0.01 -18.05,0 -0.01,-2.34 -0.01,-3.5 -0.02,-5.84 0.76,0 1.14,0 1.89,-0.01 -0.02,-7.63 -0.02,-11.44 -0.04,-19.06 -0.77,0.01 -1.15,0.03 -1.91,0.05 0,-2.32 -0.01,-3.47 -0.01,-5.79 7.3,-0.28 10.96,-0.27 18.26,0.07z"/>
   <path class="fil0" d="M95 95.84l-8.65 -0.02 -10.15 -0.02 0.04 -9.72 1.62 0.02 0.08 -15.18 -1.6 -0.07 0.04 -9.66 2.13 0.05c4.61,0.25 6.99,0.44 11.57,0.93l1.51 0.17c0,0 0.96,5.31 1.25,6.93 0.29,-1.43 1.33,-6.62 1.33,-6.62l1.9 0.25c4.6,0.63 6.97,1.02 11.53,1.9l1.67 0.32 -0.1 9.05 -1.65 -0.26 -0.14 12.89 1.65 0.06 -0.1 9.03 -13.93 -0.05z"/>
   <path class="fil1" d="M99.23 72.58c-0.25,1.8 -0.7,4.44 -0.92,5.37 -1.33,6.24 -1.99,9.42 -3.3,15.85 -2.51,0 -3.76,-0.01 -6.26,-0.01 -1.29,-6.78 -1.93,-10.22 -3.24,-17.13 -0.14,-0.74 -0.52,-3.21 -0.59,-5.37l-0.12 -0.01c-0.05,6.78 -0.07,10.17 -0.11,16.95 0.68,0.01 1.02,0.02 1.7,0.03 -0.01,2.21 -0.02,3.31 -0.03,5.52 -3.25,-0.01 -4.87,-0.01 -8.12,-0.01 0.01,-2.25 0.02,-3.38 0.03,-5.63 0.65,0.01 0.97,0.01 1.62,0.02 0.04,-7.67 0.05,-11.51 0.09,-19.19 -0.64,-0.03 -0.96,-0.04 -1.6,-0.07 0.01,-2.25 0.02,-3.38 0.03,-5.63 4.58,0.25 6.88,0.43 11.45,0.93 1.16,6.46 1.74,9.67 2.9,16 1.21,-6.2 1.82,-9.26 3.03,-15.28 4.59,0.63 6.87,1 11.43,1.88 -0.03,2 -0.04,2.99 -0.06,4.99 -0.66,-0.1 -0.99,-0.16 -1.65,-0.25 -0.07,6.88 -0.11,10.33 -0.19,17.21 0.66,0.03 0.99,0.04 1.65,0.07 -0.02,2.01 -0.03,3.02 -0.05,5.03 -3.79,-0.02 -5.68,-0.03 -9.46,-0.04 0.02,-2.13 0.03,-3.19 0.05,-5.32 0.67,0.02 1.01,0.03 1.68,0.05 0.05,-5.42 0.08,-8.13 0.14,-13.55 0.01,-0.96 0.01,-1.44 0.02,-2.4l-0.12 -0.01z"/>
   <path class="fil0" d="M119.83 95.95l-2.05 -0.02 -0.17 0.01 -11.56 -0.06 0.1 -9.17 2.48 0.1c1.25,-4.84 2.04,-7.81 3.22,-12.17l-0.72 -0.13 0.09 -9 2.45 0.55c4.58,1.02 6.94,1.61 11.47,2.88l1.14 0.32 0.29 1.14c1.95,7.77 2.96,11.53 4.73,17.59l2.57 0.17 0 7.88c0,0 -9.25,-0.06 -14.04,-0.09z"/>
   <path class="fil1" d="M121.04 82.99c-0.77,-3.06 -1.14,-4.62 -1.9,-7.79 -0.8,2.87 -1.2,4.33 -2,7.33 1.56,0.17 2.34,0.27 3.9,0.46zm-1.2 10.92c0.01,-1.82 0.02,-2.72 0.04,-4.54 1.13,0.06 1.7,0.09 2.83,0.15 -0.24,-0.93 -0.36,-1.39 -0.61,-2.33 -2.44,-0.2 -3.66,-0.29 -6.11,-0.47 -0.26,0.97 -0.39,1.45 -0.65,2.42 0.93,0.05 1.4,0.07 2.33,0.12 -0.02,1.85 -0.03,2.78 -0.05,4.64 -3.8,-0.02 -5.71,-0.03 -9.51,-0.05 0.02,-2.01 0.03,-3.01 0.05,-5.02 0.82,0.03 1.22,0.05 2.04,0.08 1.68,-6.57 2.53,-9.75 4.2,-15.87 -0.49,-0.1 -0.73,-0.14 -1.22,-0.23 0.02,-1.91 0.03,-2.86 0.05,-4.77 4.57,1.02 6.84,1.59 11.36,2.86 2.04,8.07 3.06,11.9 5.16,19.04 0.83,0.05 1.25,0.07 2.08,0.13 0,1.57 0,2.35 0,3.92 -4.8,-0.04 -7.2,-0.05 -11.99,-0.08z"/>
  </g>
 </g>
</svg>
